<svg version="1.1" xmlns="http://www.w3.org/2000/svg" xmlns:xlink="http://www.w3.org/1999/xlink" x="0px" y="0px" viewBox="0 0 48 48" style="enable-background:new 0 0 48 48;" xml:space="preserve">
<polygon style="fill:#616161;" points="36.924,12.641 38.334,13.111 29.663,19.186 32.012,16.059 33.806,13.671 "></polygon>
<polygon style="fill:#616161;" points="3.103,37 14.073,30 10.578,27.667 "></polygon>
<polygon style="fill:#616161;" points="15.406,32 26.375,26.917 29.959,32 "></polygon>
<polygon style="fill:#BDBDBD;" points="44.978,11.301 37.053,19 29.959,32 25.959,29 24.522,28.563 39.897,15.25 "></polygon>
<path style="fill:#757575;" d="M18.397,12.969l2.125-0.906L20.31,14l1.268,3l-7.506,13h-3l-0.495-2.333
	C10.921,27.667,18.397,12.969,18.397,12.969z"></path>
<path style="fill:#BDBDBD;" d="M21.578,17h7.538c0.614,0,1.086,0.578,0.988,1.154c-0.078,0.461-0.441,1.032-0.441,1.032L33.959,15
	l1.375-2.25l-14.813-0.688L20.31,14L21.578,17z"></path>
<path style="fill: #9acd91;" d="M18.114,11L3.103,37l7.97-7l9.238-16c0,0,11.916,0,12.649,0c1,0,1,1,1,1l4.375-1.889l0-0.471V12.64
	c0-0.906-0.734-1.64-1.64-1.64H18.114z"></path>
<polygon style="fill: #9acd91;" points="15.406,32 44.978,11.301 35.959,19 25.959,29 "></polygon>
</svg>
